 <svg
                width="124"
                height="25"
                viewBox="0 0 124 25"
                fill="none"
                xmlns="http://www.w3.org/2000/svg"
              >
                <path
                  fill-rule="evenodd"
                  clip-rule="evenodd"
                  d="M48.7979 19.2093C44.2569 22.5605 37.6735 24.3427 32.0041 24.3427C24.059 24.3427 16.904 21.4056 11.4894 16.5166C11.0647 16.1323 11.4434 15.6081 11.9544 15.9054C17.7958 19.3047 25.0203 21.352 32.4809 21.352C37.5141 21.352 43.047 20.3071 48.1379 18.1477C48.9058 17.8226 49.5497 18.6538 48.7979 19.2093Z"
                  fill="#FF9900"
                />
                <path
                  fill-rule="evenodd"
                  clip-rule="evenodd"
                  d="M50.6879 17.0512C50.1066 16.3078 46.8487 16.699 45.3847 16.8744C44.9412 16.928 44.8723 16.5403 45.2719 16.2597C47.8713 14.4337 52.131 14.9607 52.626 15.5726C53.1244 16.1887 52.4944 20.4596 50.0593 22.4972C49.6841 22.8105 49.3276 22.6434 49.494 22.2299C50.0426 20.8606 51.2692 17.7961 50.6879 17.0512Z"
                  fill="#FF9900"
                />
                <path
                  fill-rule="evenodd"
                  clip-rule="evenodd"
                  d="M45.4877 3.36143V1.58765C45.4891 1.31754 45.6924 1.13794 45.9374 1.13864L53.8888 1.13794C54.1429 1.13794 54.3476 1.32242 54.3476 1.58556V3.10664C54.3448 3.36212 54.1297 3.69488 53.7489 4.22325L49.6298 10.1043C51.1585 10.0688 52.7757 10.2978 54.1652 11.0782C54.4784 11.2543 54.5627 11.5154 54.587 11.7709V13.6637C54.587 13.9247 54.3016 14.2262 54.0009 14.0695C51.5539 12.7872 48.3064 12.6473 45.5998 14.0848C45.3234 14.2324 45.0345 13.9345 45.0345 13.6734V11.8739C45.0345 11.5864 45.0401 11.0935 45.3304 10.6549L50.1018 3.80905L45.9472 3.80835C45.6931 3.80835 45.4891 3.62735 45.4877 3.36143Z"
                  fill="#010000"
                />
                <path
                  fill-rule="evenodd"
                  clip-rule="evenodd"
                  d="M16.4836 14.442H14.0645C13.8341 14.4274 13.6503 14.2547 13.6315 14.0334L13.6336 1.61761C13.6336 1.36978 13.8425 1.17138 14.1007 1.17138L16.3535 1.17069C16.5888 1.18252 16.7781 1.36073 16.7927 1.58768V3.2083H16.8387C17.4255 1.64058 18.5317 0.908936 20.0221 0.908936C21.5349 0.908936 22.4837 1.64058 23.1611 3.2083C23.7479 1.64058 25.0803 0.908936 26.5026 0.908936C27.5189 0.908936 28.6251 1.32732 29.3024 2.26781C30.0703 3.31342 29.913 4.82823 29.913 6.16065L29.9102 13.9958C29.9102 14.2429 29.702 14.442 29.4438 14.442H27.0281C26.7845 14.4267 26.5938 14.2345 26.5938 13.9965L26.5931 7.41441C26.5931 6.8923 26.6383 5.58633 26.5248 5.08998C26.3445 4.25322 25.8029 4.01792 25.1033 4.01792C24.5158 4.01792 23.9059 4.40985 23.6574 5.03638C23.4089 5.6643 23.4319 6.70852 23.4319 7.41441V13.9958C23.4319 14.2429 23.223 14.442 22.9654 14.442H20.5491C20.3062 14.4267 20.1147 14.2345 20.1147 13.9965L20.1119 7.41441C20.1119 6.02978 20.3382 3.99286 18.6222 3.99286C16.8832 3.99286 16.9514 5.97757 16.9514 7.41441L16.9501 13.9958C16.9501 14.2429 16.7412 14.442 16.4836 14.442Z"
                  fill="#010000"
                />
                <path
                  fill-rule="evenodd"
                  clip-rule="evenodd"
                  d="M61.2142 3.4436C59.4307 3.4436 59.3179 5.87245 59.3179 7.38796C59.3179 8.90346 59.2957 12.1433 61.1926 12.1433C63.0667 12.1433 63.1572 9.53069 63.1572 7.93721C63.1572 6.8923 63.1112 5.63785 62.7952 4.64514C62.5244 3.78262 61.9821 3.4436 61.2142 3.4436ZM61.1926 0.908936C64.7827 0.908936 66.7242 3.99286 66.7242 7.91146C66.7242 11.6985 64.5794 14.7037 61.1926 14.7037C57.6695 14.7037 55.7502 11.6205 55.7502 7.78058C55.7502 3.9135 57.6917 0.908936 61.1926 0.908936Z"
                  fill="#010000"
                />
                <path
                  fill-rule="evenodd"
                  clip-rule="evenodd"
                  d="M71.3807 14.442H68.97C68.7284 14.4267 68.5363 14.2345 68.5363 13.9965L68.5321 1.57654C68.553 1.3489 68.7535 1.17138 68.9971 1.17138L71.2408 1.17069C71.4524 1.18182 71.6265 1.32523 71.671 1.51806V3.41715H71.7163C72.3943 1.71855 73.3418 0.908936 75.0125 0.908936C76.0964 0.908936 77.158 1.30087 77.8354 2.37223C78.4675 3.36493 78.4675 5.03638 78.4675 6.23862V14.0515C78.441 14.2714 78.2433 14.442 78.0039 14.442H75.5792C75.355 14.4281 75.1747 14.2631 75.1483 14.0515V7.31068C75.1483 5.95181 75.307 3.96571 73.6355 3.96571C73.0487 3.96571 72.5064 4.35764 72.2356 4.95841C71.8966 5.71651 71.8513 6.47392 71.8513 7.31068V13.9958C71.8471 14.2429 71.6383 14.442 71.3807 14.442Z"
                  fill="#010000"
                />
                <path
                  fill-rule="evenodd"
                  clip-rule="evenodd"
                  d="M41.587 14.4115C41.4276 14.5549 41.1972 14.5647 41.0162 14.4679C40.2128 13.8003 40.0687 13.4919 39.6294 12.8556C38.3019 14.2082 37.3614 14.6141 35.6412 14.6141C33.605 14.6141 32.0206 13.3568 32.0206 10.8438C32.0206 8.87994 33.085 7.54473 34.6005 6.89036C35.9127 6.31395 37.7457 6.20953 39.1491 6.0522V5.73824C39.1491 5.16113 39.1943 4.4817 38.8546 3.98395C38.5602 3.53842 37.9949 3.35533 37.4971 3.35533C36.5741 3.35533 35.7547 3.82802 35.5528 4.80749C35.5103 5.02538 35.3516 5.24189 35.133 5.25302L32.7877 4.99893C32.59 4.95368 32.37 4.79496 32.4264 4.49283C32.959 1.68807 35.4637 0.813708 37.7401 0.790039H37.9197C39.0851 0.804658 40.5734 1.12419 41.4798 1.99367C42.657 3.09358 42.5428 4.55966 42.5428 6.15732V9.92555C42.5428 11.0596 43.0141 11.5566 43.4561 12.1671C43.6114 12.3878 43.6455 12.6489 43.4485 12.8104C42.9542 13.2246 42.0764 13.9869 41.594 14.4171L41.587 14.4115ZM39.1491 8.51377C39.1491 9.45635 39.1714 10.2416 38.6966 11.0798C38.3116 11.7599 37.7004 12.179 37.0217 12.179C36.0944 12.179 35.5514 11.4724 35.5514 10.4247C35.5514 8.3641 37.399 7.98957 39.1491 7.98957V8.51377Z"
                  fill="#010000"
                />
                <path
                  fill-rule="evenodd"
                  clip-rule="evenodd"
                  d="M9.87706 14.4115C9.71694 14.5549 9.48582 14.5647 9.30552 14.4679C8.50147 13.8003 8.35737 13.4919 7.9188 12.8556C6.59056 14.2082 5.65076 14.6141 3.93059 14.6141C1.89436 14.6141 0.309937 13.3568 0.309937 10.8438C0.309937 8.87994 1.37295 7.54473 2.88985 6.89036C4.20208 6.31395 6.03503 6.20953 7.43776 6.0522V5.73824C7.43776 5.16113 7.48371 4.4817 7.14399 3.98395C6.84952 3.53842 6.28356 3.35533 5.78651 3.35533C4.86342 3.35533 4.04267 3.82802 3.84218 4.80749C3.80041 5.02538 3.64099 5.24189 3.4217 5.25302L1.07709 4.99893C0.878687 4.95368 0.658705 4.79496 0.715789 4.49283C1.24695 1.68807 3.75237 0.813708 6.02946 0.790039H6.20907C7.37442 0.804658 8.86277 1.12419 9.76915 1.99367C10.9456 3.09358 10.8322 4.55966 10.8322 6.15732V9.92555C10.8322 11.0596 11.3035 11.5566 11.7455 12.1671C11.8994 12.3878 11.9349 12.6489 11.7379 12.8104C11.2436 13.2246 10.3651 13.9869 9.88263 14.4171L9.87706 14.4115ZM7.43776 8.51377C7.43776 9.45635 7.46074 10.2416 6.98527 11.0798C6.601 11.7599 5.98978 12.179 5.31035 12.179C4.38308 12.179 3.84009 11.4724 3.84009 10.4247C3.84009 8.3641 5.68835 7.98957 7.43776 7.98957V8.51377Z"
                  fill="#010000"
                />
                <path
                  fill-rule="evenodd"
                  clip-rule="evenodd"
                  d="M111.535 18.8959C111.535 18.5812 111.535 18.2986 111.535 17.9839C111.535 17.7243 111.663 17.5454 111.933 17.5614C112.439 17.6331 113.154 17.7048 113.661 17.6004C114.324 17.4625 114.799 16.9926 115.081 16.3487C115.477 15.4423 115.739 14.7114 115.905 14.2317L110.872 1.76514C110.788 1.55351 110.762 1.16089 111.185 1.16089H112.944C113.28 1.16089 113.416 1.37391 113.491 1.58275L117.14 11.7089L120.623 1.58275C120.694 1.3753 120.836 1.16089 121.169 1.16089H122.828C123.248 1.16089 123.224 1.55282 123.141 1.76514L118.149 14.6209C117.503 16.332 116.642 19.0574 114.704 19.5308C113.732 19.7849 112.506 19.693 111.787 19.3915C111.605 19.3003 111.535 19.0567 111.535 18.8959Z"
                  fill="#010000"
                />
                <path
                  fill-rule="evenodd"
                  clip-rule="evenodd"
                  d="M109.188 13.6825C109.188 13.9143 108.998 14.1044 108.765 14.1044H107.525C107.257 14.1044 107.073 13.9109 107.039 13.6825L106.915 12.8381C106.345 13.3205 105.645 13.7445 104.886 14.0397C103.427 14.6063 101.745 14.7003 100.319 13.8245C99.2884 13.1917 98.7413 11.9547 98.7413 10.6787C98.7413 9.69153 99.0455 8.71275 99.72 8.00199C100.62 7.03087 101.925 6.55401 103.5 6.55401C104.452 6.55401 105.813 6.66609 106.804 6.98979V5.2905C106.804 3.56267 106.077 2.81501 104.159 2.81501C102.693 2.81501 101.571 3.03639 100.01 3.5216C99.7604 3.52995 99.6142 3.33991 99.6142 3.10809V2.13906C99.6142 1.90654 99.8126 1.68169 100.028 1.61347C101.142 1.12756 102.721 0.824735 104.4 0.769043C106.588 0.769043 109.188 1.26261 109.188 4.62777V13.6825ZM106.804 11.2015V8.63757C105.971 8.40993 104.594 8.31525 104.061 8.31525C103.218 8.31525 102.296 8.51435 101.814 9.03298C101.454 9.41307 101.291 9.95885 101.291 10.4865C101.291 11.1688 101.527 11.8531 102.079 12.1914C102.719 12.6265 103.712 12.5736 104.646 12.3083C105.543 12.0536 106.386 11.6031 106.804 11.2015Z"
                  fill="#010000"
                />
                <path
                  fill-rule="evenodd"
                  clip-rule="evenodd"
                  d="M90.897 2.85321C93.6496 2.85321 94.3993 5.01753 94.3993 7.4958C94.4147 9.16655 94.1077 10.6563 93.2424 11.5091C92.5949 12.1474 91.8716 12.3215 90.7829 12.3215C89.8138 12.3215 88.5392 11.8161 87.5869 11.1123V4.02622C88.5782 3.26463 89.8431 2.85321 90.897 2.85321ZM87.165 19.3407H85.5033C85.2708 19.3407 85.0807 19.1507 85.0807 18.9188C85.0807 13.1478 85.0807 7.37607 85.0807 1.60502C85.0807 1.37321 85.2708 1.18316 85.5033 1.18316H86.7752C87.0425 1.18316 87.2256 1.37669 87.2597 1.60502L87.3933 2.5121C88.5844 1.45466 90.118 0.776611 91.5793 0.776611C95.6719 0.776611 97.0175 4.14874 97.0175 7.65522C97.0175 11.4067 94.959 14.4211 91.4776 14.4211C90.0115 14.4211 88.6408 13.8801 87.5869 12.9404V18.9188C87.5869 19.1507 87.3968 19.3407 87.165 19.3407Z"
                  fill="#010000"
                />
              </svg>