  <svg
                width="49"
                height="24"
                viewBox="0 0 49 24"
                fill="none"
                xmlns="http://www.w3.org/2000/svg"
              >
                <path
                  fill-rule="evenodd"
                  clip-rule="evenodd"
                  d="M7.7181 5.67778C8.7389 4.34253 10.1592 4.34253 10.1592 4.34253C10.1592 4.34253 10.3589 5.59023 9.36026 6.79414C8.27288 8.06373 7.05236 7.84483 7.05236 7.84483C7.05236 7.84483 6.80825 6.85981 7.7181 5.67778ZM4.47815 8.06373C2.68065 8.06373 0.75 9.66165 0.75 12.6824C0.75 15.7688 3.01352 19.6213 4.83322 19.6213C5.45458 19.6213 6.431 18.9865 7.40742 18.9865C8.36165 18.9865 9.07177 19.5776 9.95943 19.5776C11.9345 19.5776 13.3991 15.528 13.3991 15.528C13.3991 15.528 11.3131 14.74 11.3131 12.4197C11.3131 10.3621 12.9997 9.53032 12.9997 9.53032C12.9997 9.53032 12.1342 7.99806 9.95943 7.99806C8.69452 7.99806 7.7181 8.69852 7.2077 8.69852C6.56415 8.72041 5.6543 8.06373 4.47815 8.06373Z"
                  fill="white"
                />
                <path
                  d="M23.1634 5.39307C25.8929 5.39307 27.8235 7.25367 27.8235 9.96795C27.8235 12.6822 25.8707 14.5647 23.0968 14.5647H19.8346V19.3147H17.6377V5.39307H23.1634ZM19.8346 12.7479H22.5864C24.4726 12.7479 25.5822 11.741 25.5822 9.98984C25.5822 8.23869 24.4948 7.20989 22.5864 7.20989H19.8346V12.7479Z"
                  fill="white"
                />
                <path
                  d="M28.2452 16.316C28.2452 14.4773 29.6876 13.4266 32.3062 13.2515L35.1689 13.0983V12.2883C35.1689 11.0844 34.3478 10.4277 32.9498 10.4277C31.7958 10.4277 30.9525 11.0188 30.775 11.9162H28.8C28.8665 10.0556 30.6418 8.69849 33.0163 8.69849C35.6127 8.69849 37.2771 10.0556 37.2771 12.1132V19.293H35.2577V17.5418H35.2133C34.6363 18.6801 33.3048 19.4024 31.8624 19.4024C29.7098 19.4243 28.2452 18.1766 28.2452 16.316ZM35.1689 15.3748V14.5648L32.5947 14.74C31.1523 14.8275 30.3977 15.3529 30.3977 16.2941C30.3977 17.1916 31.1966 17.7607 32.4172 17.7607C33.9706 17.7388 35.1689 16.7538 35.1689 15.3748Z"
                  fill="white"
                />
                <path
                  d="M39.585 23.0579V21.3505C39.7403 21.3943 40.0732 21.3943 40.2507 21.3943C41.2493 21.3943 41.8263 20.9784 42.1814 19.862L42.3367 19.3148L38.4754 8.80786H40.7611L43.4907 17.3666H43.535L46.2646 8.80786H48.4837L44.5115 19.7744C43.6016 22.2917 42.603 23.1016 40.4282 23.1016C40.2729 23.1235 39.7625 23.0797 39.585 23.0579Z"
                  fill="white"
                />
              </svg>