  <svg
                width="49"
                height="21"
                viewBox="0 0 49 21"
                fill="none"
                xmlns="http://www.w3.org/2000/svg"
              >
                <path
                  fill-rule="evenodd"
                  clip-rule="evenodd"
                  d="M22.4014 15.9133V10.044H25.4306C26.6719 10.044 27.7197 9.62806 28.5738 8.80774L28.7788 8.59978C30.3389 6.90138 30.2364 4.25558 28.5738 2.68427C27.7424 1.85241 26.6036 1.40181 25.4306 1.42492H20.5679V15.9133H22.4014ZM22.4016 8.2646V3.20408H25.4769C26.1375 3.20408 26.764 3.45826 27.2309 3.92041C28.2219 4.89092 28.2446 6.50844 27.2879 7.51361C26.8209 8.01042 26.1603 8.28771 25.4769 8.2646H22.4016ZM37.3313 6.77424C36.5455 6.04636 35.475 5.67664 34.1198 5.67664C32.3775 5.67664 31.0678 6.32365 30.2023 7.60611L31.8194 8.63439C32.4116 7.75631 33.2202 7.31726 34.2451 7.31726C34.8942 7.31726 35.5206 7.55989 36.0103 7.99893C36.4886 8.41487 36.7619 9.01566 36.7619 9.65112V10.0786C36.0558 9.68578 35.1676 9.47781 34.0743 9.47781C32.7988 9.47781 31.7739 9.77821 31.0109 10.3906C30.2479 11.0029 29.8607 11.8117 29.8607 12.8399C29.8379 13.7758 30.2365 14.6654 30.9426 15.2662C31.66 15.9132 32.5711 16.2367 33.6415 16.2367C34.9056 16.2367 35.9078 15.6706 36.6708 14.5383H36.7505V15.9132H38.5043V9.80131C38.5043 8.51885 38.1171 7.50212 37.3313 6.77424ZM32.355 14.0878C31.9791 13.8105 31.7513 13.3599 31.7513 12.8746C31.7513 12.3316 32.0019 11.881 32.4917 11.5229C32.9928 11.1647 33.6193 10.9798 34.3596 10.9798C35.3847 10.9683 36.182 11.1993 36.7515 11.6615C36.7515 12.4471 36.444 13.1288 35.8403 13.7065C35.2936 14.2611 34.5532 14.573 33.7787 14.573C33.2662 14.5846 32.765 14.4113 32.355 14.0878ZM42.4446 20.269L48.5714 6.00014H46.5785L43.7429 13.1172H43.7087L40.8047 6.00014H38.8118L42.8318 15.2778L40.5542 20.269H42.4446Z"
                  fill="#3C4043"
                />
                <path
                  d="M16.0715 8.77302C16.0715 8.20689 16.026 7.64076 15.9349 7.08618H8.20233V10.2866H12.6323C12.4501 11.3148 11.8579 12.2391 10.9924 12.8168V14.8965H13.6345C15.1833 13.4523 16.0715 11.3148 16.0715 8.77302Z"
                  fill="#4285F4"
                />
                <path
                  d="M8.20267 16.9069C10.412 16.9069 12.2796 16.1674 13.6348 14.8965L10.9928 12.8169C10.2525 13.3252 9.30732 13.6141 8.20267 13.6141C6.0617 13.6141 4.25099 12.1468 3.60186 10.1826H0.880096V12.3316C2.26945 15.1392 5.1051 16.9069 8.20267 16.9069Z"
                  fill="#34A853"
                />
                <path
                  d="M3.60217 10.1827C3.26047 9.15443 3.26047 8.03372 3.60217 6.99388V4.85645H0.879966C-0.2932 7.20185 -0.2932 9.97474 0.879966 12.3201L3.60217 10.1827Z"
                  fill="#FBBC04"
                />
                <path
                  d="M8.20267 3.56236C9.37565 3.53925 10.5031 3.98984 11.3458 4.81016L13.6918 2.43009C12.1999 1.02054 10.2412 0.246438 8.20267 0.269546C5.1051 0.269546 2.26945 2.04882 0.880096 4.85637L3.60186 7.00536C4.25099 5.02968 6.0617 3.56236 8.20267 3.56236Z"
                  fill="#EA4335"
                />
              </svg>