<svg
                width="85"
                height="24"
                viewBox="0 0 85 24"
                fill="none"
                xmlns="http://www.w3.org/2000/svg"
              >
                <path
                  fill-rule="evenodd"
                  clip-rule="evenodd"
                  d="M26.9213 5.84546H31.5542C33.1048 5.84546 34.2727 6.2741 34.9312 7.08456C35.5307 7.82262 35.7292 8.87649 35.5219 10.2178C35.0619 13.2836 33.3006 14.8307 30.2488 14.8307H28.7822C28.4659 14.8307 28.1956 15.072 28.1468 15.4006L27.6414 18.7573C27.592 19.0859 27.3224 19.3272 27.0053 19.3272H24.7936C24.5558 19.3272 24.3743 19.1058 24.4115 18.8602L26.2853 6.41462C26.3347 6.08675 26.6043 5.84546 26.9213 5.84546ZM29.337 12.1325C30.5652 12.1325 31.8353 12.1325 32.0887 10.3909C32.1815 9.7792 32.107 9.33636 31.8638 9.0383C31.456 8.53868 30.6668 8.53868 29.8302 8.53868H29.5098C29.3201 8.53868 29.1575 8.68346 29.1284 8.88004L28.6379 12.1325H29.337Z"
                  fill="#253B80"
                />
                <path
                  fill-rule="evenodd"
                  clip-rule="evenodd"
                  d="M43.1842 10.335H45.4027C45.6398 10.335 45.8207 10.5572 45.7828 10.802L44.5837 18.7568C44.5336 19.0854 44.2653 19.3266 43.9476 19.3266H41.9492C41.7128 19.3266 41.5313 19.1052 41.5685 18.8583L41.6674 18.2125C41.6674 18.2125 40.572 19.5431 38.5967 19.5431C37.4458 19.5431 36.4784 19.1954 35.8023 18.3608C35.0653 17.4531 34.7639 16.1516 34.9759 14.7904C35.3837 12.0617 37.4776 10.1165 39.9292 10.1165C40.9981 10.1165 42.0691 10.3606 42.5494 11.0908L42.7046 11.3265L42.8028 10.6764C42.8319 10.4798 42.9952 10.335 43.1842 10.335ZM39.8072 17.0777C41.0903 17.0777 42.0962 16.1863 42.3103 14.8585C42.4072 14.2156 42.273 13.6322 41.935 13.2142C41.5977 12.8005 41.0855 12.5812 40.4555 12.5812C39.1921 12.5812 38.1692 13.5016 37.9694 14.8181C37.8651 15.4639 37.9897 16.0437 38.3176 16.451C38.6482 16.8612 39.163 17.0777 39.8072 17.0777Z"
                  fill="#253B80"
                />
                <path
                  d="M57.2183 10.335H54.9889C54.7762 10.335 54.5763 10.4457 54.4557 10.6309L51.3809 15.3758L50.0776 10.8161C49.9956 10.5308 49.7443 10.335 49.4598 10.335H47.269C47.0028 10.335 46.8178 10.6075 46.9025 10.8701L49.3582 18.4196L47.0495 21.8339C46.868 22.1028 47.0509 22.4726 47.3645 22.4726H49.5912C49.8025 22.4726 50.0004 22.3647 50.1203 22.183L57.5353 10.9701C57.7128 10.7019 57.5306 10.335 57.2183 10.335Z"
                  fill="#253B80"
                />
                <path
                  fill-rule="evenodd"
                  clip-rule="evenodd"
                  d="M59.9659 5.84546H64.5994C66.15 5.84546 67.3172 6.2741 67.975 7.08456C68.5745 7.82262 68.7744 8.87649 68.5664 10.2178C68.1057 13.2836 66.3451 14.8307 63.2927 14.8307H61.8267C61.5104 14.8307 61.2401 15.072 61.1913 15.4006L60.6595 18.9284C60.625 19.1583 60.436 19.3272 60.2152 19.3272H57.8374C57.601 19.3272 57.4194 19.1058 57.4567 18.8602L59.3304 6.41462C59.3799 6.08675 59.6495 5.84546 59.9659 5.84546ZM62.3822 12.1325C63.6111 12.1325 64.8812 12.1325 65.1339 10.3909C65.2267 9.7792 65.1529 9.33636 64.9097 9.0383C64.5019 8.53868 63.712 8.53868 62.8761 8.53868H62.5556C62.3653 8.53868 62.2041 8.68346 62.1749 8.88004L61.6838 12.1325H62.3822Z"
                  fill="#179BD7"
                />
                <path
                  fill-rule="evenodd"
                  clip-rule="evenodd"
                  d="M76.23 10.335H78.4472C78.685 10.335 78.8665 10.5572 78.83 10.802L77.6302 18.7568C77.5808 19.0854 77.3112 19.3266 76.9948 19.3266H74.9971C74.7593 19.3266 74.5778 19.1052 74.6151 18.8583L74.714 18.2125C74.714 18.2125 73.6186 19.5431 71.6432 19.5431C70.4923 19.5431 69.5263 19.1954 68.8489 18.3608C68.1118 17.4531 67.8117 16.1516 68.0231 14.7904C68.4309 12.0617 70.5241 10.1165 72.9757 10.1165C74.0447 10.1165 75.115 10.3606 75.5953 11.0908L75.7511 11.3265L75.8493 10.6764C75.8778 10.4798 76.0397 10.335 76.23 10.335ZM72.8517 17.0777C74.1348 17.0777 75.1421 16.1863 75.3548 14.8585C75.453 14.2156 75.3189 13.6322 74.9795 13.2142C74.6422 12.8005 74.13 12.5812 73.5 12.5812C72.2366 12.5812 71.2151 13.5016 71.0139 14.8181C70.9109 15.4639 71.0342 16.0437 71.3621 16.451C71.6927 16.8612 72.2089 17.0777 72.8517 17.0777Z"
                  fill="#179BD7"
                />
                <path
                  d="M81.0628 6.18679L79.1612 18.8602C79.124 19.1058 79.3055 19.3272 79.5419 19.3272H81.4536C81.7713 19.3272 82.0409 19.0859 82.0897 18.7573L83.9648 6.3124C84.0021 6.06686 83.8205 5.84473 83.5841 5.84473H81.4435C81.2545 5.84544 81.0919 5.99021 81.0628 6.18679Z"
                  fill="#179BD7"
                />
                <path
                  d="M5.17214 21.7459L5.52643 19.3884L4.73723 19.3692H0.96875L3.58765 1.97291C3.59578 1.92039 3.6222 1.87142 3.66081 1.83665C3.69943 1.80188 3.74888 1.78271 3.80036 1.78271H10.1546C12.264 1.78271 13.7198 2.24259 14.4799 3.15026C14.8362 3.57607 15.0631 4.02104 15.1729 4.51071C15.288 5.02452 15.2901 5.63839 15.1776 6.3871L15.1695 6.44175V6.92149L15.5258 7.13297C15.8259 7.29975 16.0644 7.49065 16.2473 7.70923C16.5521 8.0733 16.7492 8.53601 16.8326 9.08459C16.9186 9.64878 16.8901 10.3201 16.7492 11.0802C16.5867 11.9545 16.3238 12.716 15.9688 13.3391C15.6423 13.9132 15.2264 14.3894 14.7326 14.7585C14.2611 15.109 13.7008 15.3752 13.0675 15.5455C12.4537 15.713 11.7539 15.7974 10.9864 15.7974H10.4919C10.1383 15.7974 9.79485 15.9308 9.52523 16.17C9.25494 16.4141 9.0761 16.7477 9.02123 17.1125L8.98398 17.3247L8.35804 21.4798L8.32959 21.6324C8.32214 21.6807 8.30927 21.7048 8.2903 21.7211C8.27336 21.736 8.24898 21.7459 8.22527 21.7459H5.17214Z"
                  fill="#253B80"
                />
                <path
                  d="M15.8632 6.49707C15.8442 6.6241 15.8225 6.75397 15.7981 6.88739C14.9602 11.3946 12.0933 12.9516 8.43188 12.9516H6.56762C6.11985 12.9516 5.74253 13.2922 5.67275 13.7549L4.71827 20.0966L4.44798 21.8942C4.40259 22.198 4.62614 22.4719 4.91879 22.4719H8.22527C8.61682 22.4719 8.94943 22.1738 9.01108 21.7693L9.04359 21.5933L9.66614 17.4545L9.70611 17.2274C9.76708 16.8215 10.1004 16.5234 10.4919 16.5234H10.9864C14.1899 16.5234 16.6978 15.1608 17.4307 11.2178C17.7369 9.57068 17.5784 8.19533 16.7682 7.22804C16.523 6.93636 16.2188 6.69436 15.8632 6.49707Z"
                  fill="#179BD7"
                />
                <path
                  d="M14.9866 6.13077C14.8585 6.09174 14.7264 6.05625 14.591 6.02432C14.4548 5.99309 14.3152 5.96542 14.1716 5.94129C13.669 5.85613 13.1182 5.81567 12.5282 5.81567H7.54783C7.42521 5.81567 7.3087 5.84477 7.20437 5.89729C6.97473 6.01296 6.80402 6.24077 6.7627 6.51967L5.70321 13.5497L5.67273 13.7548C5.7425 13.2921 6.11983 12.9515 6.5676 12.9515H8.43186C12.0933 12.9515 14.9601 11.3937 15.7981 6.88729C15.8232 6.75387 15.8442 6.624 15.8631 6.49696C15.6511 6.37916 15.4215 6.27838 15.1742 6.19251C15.1132 6.17122 15.0502 6.15064 14.9866 6.13077Z"
                  fill="#222D65"
                />
                <path
                  d="M6.7627 6.51971C6.80402 6.24081 6.97473 6.01301 7.20438 5.89804C7.30938 5.84552 7.42522 5.81642 7.54783 5.81642H12.5282C13.1183 5.81642 13.669 5.85688 14.1716 5.94204C14.3153 5.96617 14.4548 5.99384 14.591 6.02507C14.7264 6.05701 14.8585 6.09249 14.9866 6.13152C15.0503 6.15139 15.1132 6.17197 15.1749 6.19255C15.4222 6.27842 15.6518 6.37991 15.8638 6.497C16.1131 4.83139 15.8618 3.69733 15.0022 2.67042C14.0544 1.53991 12.344 1.05591 10.1552 1.05591H3.80102C3.35393 1.05591 2.97254 1.39655 2.90344 1.85997L0.256767 19.4351C0.204605 19.7829 0.46067 20.0966 0.795315 20.0966H4.71825L5.70322 13.5498L6.7627 6.51971Z"
                  fill="#253B80"
                />
              </svg>