<svg width="164" height="25" viewBox="0 0 164 25" fill="none" xmlns="http://www.w3.org/2000/svg">
<g clip-path="url(#clip0_1_4646)">
<path opacity="0.07" d="M35 0.269043H3C1.3 0.269043 0 1.56904 0 3.26904V21.269C0 22.969 1.4 24.269 3 24.269H35C36.7 24.269 38 22.969 38 21.269V3.26904C38 1.56904 36.6 0.269043 35 0.269043Z" fill="black"/>
<path d="M35 1.26904C36.1 1.26904 37 2.16904 37 3.26904V21.269C37 22.369 36.1 23.269 35 23.269H3C1.9 23.269 1 22.369 1 21.269V3.26904C1 2.16904 1.9 1.26904 3 1.26904H35Z" fill="white"/>
<path d="M28.3 10.369H28C27.6 11.369 27.3 11.869 27 13.369H28.9C28.6 11.869 28.6 11.169 28.3 10.369ZM31.2 16.269H29.5C29.4 16.269 29.4 16.269 29.3 16.169L29.1 15.269L29 15.069H26.6C26.5 15.069 26.4 15.069 26.4 15.269L26.1 16.169C26.1 16.269 26 16.269 26 16.269H23.9L24.1 15.769L27 8.96904C27 8.46904 27.3 8.26904 27.8 8.26904H29.3C29.4 8.26904 29.5 8.26904 29.5 8.46904L30.9 14.969C31 15.369 31.1 15.669 31.1 16.069C31.2 16.169 31.2 16.169 31.2 16.269ZM17.8 15.969L18.2 14.169C18.3 14.169 18.4 14.269 18.4 14.269C19.1 14.569 19.8 14.769 20.5 14.669C20.7 14.669 21 14.569 21.2 14.469C21.7 14.269 21.7 13.769 21.3 13.369C21.1 13.169 20.8 13.069 20.5 12.869C20.1 12.669 19.7 12.469 19.4 12.169C18.2 11.169 18.6 9.76904 19.3 9.06904C19.9 8.66904 20.2 8.26904 21 8.26904C22.2 8.26904 23.5 8.26904 24.1 8.46904H24.2C24.1 9.06904 24 9.56904 23.8 10.169C23.3 9.96904 22.8 9.76904 22.3 9.76904C22 9.76904 21.7 9.76904 21.4 9.86904C21.2 9.86904 21.1 9.96904 21 10.069C20.8 10.269 20.8 10.569 21 10.769L21.5 11.169C21.9 11.369 22.3 11.569 22.6 11.769C23.1 12.069 23.6 12.569 23.7 13.169C23.9 14.069 23.6 14.869 22.8 15.469C22.3 15.869 22.1 16.069 21.4 16.069C20 16.069 18.9 16.169 18 15.869C17.9 16.069 17.9 16.069 17.8 15.969ZM14.3 16.269C14.4 15.569 14.4 15.569 14.5 15.269C15 13.069 15.5 10.769 15.9 8.56904C16 8.36904 16 8.26904 16.2 8.26904H18C17.8 9.46904 17.6 10.369 17.3 11.469C17 12.969 16.7 14.469 16.3 15.969C16.3 16.169 16.2 16.169 16 16.169L14.3 16.269ZM5 8.46904C5 8.36904 5.2 8.26904 5.3 8.26904H8.7C9.2 8.26904 9.6 8.56904 9.7 9.06904L10.6 13.469C10.6 13.569 10.6 13.569 10.7 13.669C10.7 13.569 10.8 13.569 10.8 13.569L12.9 8.46904C12.8 8.36904 12.9 8.26904 13 8.26904H15.1C15.1 8.36904 15.1 8.36904 15 8.46904L11.9 15.769C11.8 15.969 11.8 16.069 11.7 16.169C11.6 16.269 11.4 16.169 11.2 16.169H9.7C9.6 16.169 9.5 16.169 9.5 15.969L7.9 9.76904C7.7 9.56904 7.4 9.26904 7 9.16904C6.4 8.86904 5.3 8.66904 5.1 8.66904L5 8.46904Z" fill="#142688"/>
</g>
<g clip-path="url(#clip1_1_4646)">
<path opacity="0.07" d="M77 0.269043H45C43.3 0.269043 42 1.56904 42 3.26904V21.269C42 22.969 43.4 24.269 45 24.269H77C78.7 24.269 80 22.969 80 21.269V3.26904C80 1.56904 78.6 0.269043 77 0.269043Z" fill="black"/>
<path d="M77 1.26904C78.1 1.26904 79 2.16904 79 3.26904V21.269C79 22.369 78.1 23.269 77 23.269H45C43.9 23.269 43 22.369 43 21.269V3.26904C43 2.16904 43.9 1.26904 45 1.26904H77Z" fill="white"/>
<path d="M57 19.269C60.866 19.269 64 16.135 64 12.269C64 8.40305 60.866 5.26904 57 5.26904C53.134 5.26904 50 8.40305 50 12.269C50 16.135 53.134 19.269 57 19.269Z" fill="#EB001B"/>
<path d="M65 19.269C68.866 19.269 72 16.135 72 12.269C72 8.40305 68.866 5.26904 65 5.26904C61.134 5.26904 58 8.40305 58 12.269C58 16.135 61.134 19.269 65 19.269Z" fill="#F79E1B"/>
<path d="M64 12.2691C64 9.86909 62.8 7.76909 61 6.56909C59.2 7.86909 58 9.96909 58 12.2691C58 14.5691 59.2 16.7691 61 17.9691C62.8 16.7691 64 14.6691 64 12.2691Z" fill="#FF5F00"/>
</g>
<g clip-path="url(#clip2_1_4646)">
<path opacity="0.07" d="M119 0.269043H87C85.3 0.269043 84 1.56904 84 3.26904V21.269C84 22.969 85.4 24.269 87 24.269H119C120.7 24.269 122 22.969 122 21.269V3.26904C122 1.56904 120.6 0.269043 119 0.269043Z" fill="black"/>
<path d="M119 1.26904C120.1 1.26904 121 2.16904 121 3.26904V21.269C121 22.369 120.1 23.269 119 23.269H87C85.9 23.269 85 22.369 85 21.269V3.26904C85 2.16904 85.9 1.26904 87 1.26904H119Z" fill="#006FCF"/>
<path d="M92.971 10.537L93.745 12.413H92.203L92.971 10.537ZM109.046 10.615H106.069V11.442H108.998V12.681H106.075V13.603H109.052V14.342L111.129 12.097L109.052 9.75704L109.046 10.615ZM94.983 8.27504H98.978L99.865 10.21L100.687 8.26904H111.057L112.135 9.45904L113.25 8.26904H118.013L114.494 12.121L117.977 15.949H113.143L112.065 14.759L110.94 15.949H94.03L93.536 14.759H92.406L91.911 15.949H88L91.286 8.26904H94.716L94.983 8.27504ZM103.646 9.35304H101.407L99.907 12.889L98.282 9.35304H96.06V14.163L94 9.35304H92.007L89.625 14.865H91.18L91.674 13.675H94.27L94.764 14.865H97.484V10.93L99.235 14.871H100.425L102.165 10.942V14.872H103.623L103.647 9.35204L103.646 9.35304ZM112.986 12.121L115.517 9.35304H113.695L112.094 11.079L110.546 9.35304H104.652V14.871H110.462L112.076 13.133L113.624 14.871H115.499L112.987 12.121H112.986Z" fill="white"/>
</g>
<g clip-path="url(#clip3_1_4646)">
<path opacity="0.07" d="M161 0.269043H129C127.3 0.269043 126 1.56904 126 3.26904V21.269C126 22.969 127.4 24.269 129 24.269H161C162.7 24.269 164 22.969 164 21.269V3.26904C164 1.56904 162.6 0.269043 161 0.269043Z" fill="black"/>
<path d="M161 1.26904C162.1 1.26904 163 2.16904 163 3.26904V21.269C163 22.369 162.1 23.269 161 23.269H129C127.9 23.269 127 22.369 127 21.269V3.26904C127 2.16904 127.9 1.26904 129 1.26904H161Z" fill="white"/>
<path d="M163 17.219V21.269C163 22.369 162.1 23.269 161 23.269H149.228C157.124 21.454 161.271 18.668 163 17.219Z" fill="#EDA024"/>
<path d="M135 11.269H155V13.269H135V11.269Z" fill="#494949"/>
<path d="M148 12.269C148 13.969 146.7 15.269 145 15.269C143.3 15.269 142 13.869 142 12.269C142 10.669 143.4 9.26904 145 9.26904C146.7 9.26904 148 10.569 148 12.269Z" fill="#EDA024"/>
</g>
<defs>
<clipPath id="clip0_1_4646">
<rect width="38" height="24" fill="white" transform="translate(0 0.269043)"/>
</clipPath>
<clipPath id="clip1_1_4646">
<rect width="38" height="24" fill="white" transform="translate(42 0.269043)"/>
</clipPath>
<clipPath id="clip2_1_4646">
<rect width="38" height="24" fill="white" transform="translate(84 0.269043)"/>
</clipPath>
<clipPath id="clip3_1_4646">
<rect width="38" height="24" fill="white" transform="translate(126 0.269043)"/>
</clipPath>
</defs>
</svg>
