<svg
            width="18"
            height="19"
            viewBox="0 0 18 19"
            fill="none"
            xmlns="http://www.w3.org/2000/svg"
          >
            <g clip-path="url(#clip0_25_781)">
              <path
                opacity="0.55"
                d="M17.78 3.12829C17.45 2.48129 16.778 2.03829 16 2.03829H10.835C10.3 2.03829 9.78903 2.25229 9.41302 2.63129L2.59302 9.52129C2.59302 9.52329 2.59303 9.52429 2.59103 9.52429C2.34703 9.77729 2.17902 10.0783 2.09102 10.3983L0.740025 8.09329C0.180025 7.14029 0.500025 5.91529 1.45202 5.35629L9.82302 0.463288C10.283 0.193287 10.833 0.118288 11.35 0.258288L16.34 1.59529C17.095 1.79829 17.633 2.40929 17.78 3.12829Z"
                fill="white"
                fill-opacity="0.75"
              />
              <path
                d="M10.835 2.03833H16C17.105 2.03833 18 2.93333 18 4.03833V9.21033C18 9.74033 17.79 10.2503 17.414 10.6243L10.596 17.4423C9.819 18.2203 8.56 18.2243 7.776 17.4523L2.61 12.3523C1.824 11.5773 1.816 10.3123 2.59 9.52433C2.592 9.52433 2.593 9.52433 2.593 9.52233L9.413 2.63233C9.79 2.25233 10.3 2.03833 10.835 2.03833ZM13.5 8.03833C14.328 8.03833 15 7.36633 15 6.53833C15 5.71033 14.328 5.03833 13.5 5.03833C12.672 5.03833 12 5.71033 12 6.53833C12 7.36633 12.672 8.03833 13.5 8.03833Z"
                fill="white"
              />
            </g>
            <defs>
              <clipPath id="clip0_25_781">
                <rect
                  width="18"
                  height="18"
                  fill="white"
                  transform="translate(0 0.0383301)"
                />
              </clipPath>
            </defs>
          </svg>