<svg width="24" height="25" viewBox="0 0 24 25" fill="none" xmlns="http://www.w3.org/2000/svg">
<g clip-path="url(#clip0_232_747)">
<path d="M12 3.26904C7.05 3.26904 3 7.31904 3 12.269C3 17.219 7.05 21.269 12 21.269C16.95 21.269 21 17.219 21 12.269C21 7.31904 16.95 3.26904 12 3.26904ZM12.7875 17.894H10.65V15.644H12.7875V17.894ZM15.7125 9.90654C15.7125 11.9315 14.25 12.8315 12.5625 13.0565L12.45 14.294H11.2125L10.875 11.7065L10.9875 11.594C13.0125 11.4815 13.9125 10.919 13.9125 9.79404C13.9125 8.89404 13.2375 8.33154 12.1125 8.33154C11.1 8.33154 10.3125 8.78154 9.525 9.56904L8.2875 8.33154C9.1875 7.31904 10.425 6.53154 12.1125 6.53154C14.25 6.64404 15.7125 7.88154 15.7125 9.90654Z" fill="#737373"/>
</g>
<defs>
<clipPath id="clip0_232_747">
<rect width="18" height="18" fill="white" transform="translate(3 3.26904)"/>
</clipPath>
</defs>
</svg>
