<svg width="24" height="25" viewBox="0 0 24 25" fill="none" xmlns="http://www.w3.org/2000/svg">
<path fill-rule="evenodd" clip-rule="evenodd" d="M6.75066 5.34277C5.46664 5.34244 4.53708 6.36798 4.70629 7.47006C5.08984 9.9682 6.0022 11.9286 7.41292 13.3599C8.82251 14.79 10.7856 15.7487 13.3726 16.1459C14.4741 16.3151 15.4989 15.3861 15.4989 14.1019L15.4989 13.3744C15.4989 13.2607 15.4222 13.1614 15.3123 13.1326L13.4123 12.6345C13.351 12.6185 13.2859 12.6263 13.2301 12.6564L12.1628 13.2327C11.4724 13.6055 10.5253 13.7244 9.74117 13.1773C8.97223 12.6407 8.19987 11.8586 7.66962 11.0868C7.12851 10.2993 7.24741 9.35196 7.62501 8.65887L8.1955 7.61177C8.22523 7.5562 8.23334 7.49059 8.21735 7.4296L7.71933 5.52958C7.69051 5.41963 7.59116 5.34296 7.47749 5.34296L6.75066 5.34277ZM3.22366 7.69769C2.8899 5.52383 4.72076 3.84224 6.75106 3.84277L7.47749 3.84296C8.27301 3.84305 8.9686 4.3797 9.17031 5.14925L9.66833 7.04927C9.7808 7.47836 9.72613 7.93415 9.51537 8.32446L9.51404 8.32693L8.94221 9.3765C8.75068 9.72805 8.77333 10.0444 8.90591 10.2374C9.33572 10.8629 9.98076 11.5154 10.5995 11.9471C10.7867 12.0777 11.0984 12.1028 11.4501 11.9128L12.5174 11.3365C12.9077 11.1258 13.3635 11.0711 13.7926 11.1836L15.6926 11.6816C16.4622 11.8833 16.9989 12.5788 16.9989 13.3744L16.9989 14.1019C16.9989 16.1314 15.3188 17.9623 13.145 17.6286C10.3065 17.1927 8.02463 16.1173 6.34462 14.4129C4.66574 12.7095 3.6439 10.4348 3.22366 7.69769Z" fill="#4A4A4A"/>
</svg>
