<svg width="140" height="33" viewBox="0 0 140 33" fill="none" xmlns="http://www.w3.org/2000/svg">
<path d="M56.1894 12.6428C56.0661 12.7202 55.9193 12.7472 55.7777 12.7183C55.6362 12.6894 55.5103 12.6067 55.4245 12.4866C55.0033 11.8602 54.438 11.3523 53.7797 11.0088C53.1214 10.6653 52.391 10.4971 51.6542 10.5192C48.7816 10.5192 47.0184 12.8733 47.0184 16.2354C47.0184 19.5975 48.8139 21.9964 51.6865 21.9964C52.4331 22.0148 53.1719 21.8356 53.833 21.4757C54.494 21.1158 55.0554 20.5871 55.464 19.9396C55.5457 19.8179 55.6686 19.7324 55.8082 19.7C55.9479 19.6677 56.0942 19.6908 56.2182 19.7649L57.5827 20.5831C57.6572 20.6222 57.7228 20.6775 57.7748 20.7452C57.8268 20.8129 57.8641 20.8914 57.8842 20.9754C57.9043 21.0594 57.9067 21.1469 57.8912 21.2319C57.8758 21.317 57.8428 21.3976 57.7945 21.4682C57.1274 22.5038 56.2174 23.347 55.1497 23.9187C54.082 24.4905 52.8916 24.7721 51.6901 24.7372C47.0974 24.7372 43.9841 21.2861 43.9841 16.2542C43.9841 11.2222 47.0974 7.81539 51.6219 7.81539C52.8033 7.78142 53.9749 8.04773 55.034 8.59102C56.0931 9.13432 57.0076 9.93807 57.6976 10.932C57.7451 10.9989 57.7787 11.0752 57.7965 11.1562C57.8143 11.2371 57.8159 11.321 57.8011 11.4026C57.7862 11.4843 57.7554 11.5618 57.7104 11.6306C57.6654 11.6993 57.6073 11.7577 57.5396 11.8022L56.1894 12.6428Z" fill="black"/>
<path fill-rule="evenodd" clip-rule="evenodd" d="M66.2294 23.1418V23.826C66.2294 23.9064 66.2451 23.9859 66.2755 24.0599C66.306 24.1338 66.3505 24.2006 66.4066 24.2562C66.4626 24.3118 66.5289 24.3551 66.6015 24.3834C66.6742 24.4117 66.7516 24.4246 66.8291 24.4211H68.3301C68.4055 24.4211 68.4802 24.4057 68.5499 24.3758C68.6196 24.3459 68.683 24.3021 68.7363 24.2468C68.7897 24.1915 68.832 24.1259 68.8609 24.0537C68.8898 23.9815 68.9046 23.9042 68.9046 23.826V16.0531C68.9046 13.2378 66.9728 12.0737 64.2365 12.0737C62.6985 12.0774 61.1846 12.4707 59.827 13.2192C59.6973 13.294 59.6004 13.4176 59.5563 13.5643C59.5122 13.7111 59.5242 13.8698 59.59 14.0076L60.0819 15.0713C60.1157 15.1427 60.1631 15.2062 60.2212 15.2581C60.2794 15.31 60.3471 15.3491 60.4203 15.3731C60.4934 15.3971 60.5706 15.4055 60.6469 15.3977C60.7233 15.39 60.7974 15.3662 60.8647 15.328C61.8341 14.8062 62.9072 14.5248 63.9995 14.506C64.9512 14.506 66.0751 14.7777 66.0751 15.7854C66.0751 16.8396 64.8455 17.0194 63.3285 17.2412C63.2063 17.259 63.084 17.277 62.9618 17.2953C61.3962 17.5222 58.8574 18.028 58.8574 20.9772C58.8574 23.3463 60.5128 24.6963 62.8972 24.6963C64.5095 24.6963 65.5113 24.1013 66.2294 23.1418ZM63.8762 19.1336C64.7829 18.9687 65.6053 18.8194 66.0751 18.452V19.8356C66.0751 21.643 64.8183 22.4203 63.4716 22.4203C62.3872 22.4203 61.6368 21.9181 61.6368 20.8434C61.6368 19.6755 62.4985 19.3892 63.5364 19.1958C63.6505 19.1746 63.7639 19.154 63.8762 19.1336Z" fill="black"/>
<path d="M71.3717 21.3417C71.4685 21.2249 71.6053 21.1516 71.7533 21.137C71.9013 21.1224 72.049 21.1679 72.1653 21.2637C73.1254 22.0146 74.3021 22.4077 75.5048 22.3794C76.7436 22.3794 77.6592 21.9666 77.6592 20.9624C77.6592 20.0475 76.819 19.8653 74.7866 19.4971C72.6321 19.1251 70.571 18.3813 70.571 15.8376C70.571 13.1857 72.7794 12.0665 75.2965 12.0665C76.875 12.0423 78.4159 12.5659 79.6737 13.5539C79.7351 13.6037 79.786 13.6659 79.8235 13.7367C79.8609 13.8076 79.884 13.8855 79.8914 13.9659C79.8988 14.0463 79.8903 14.1274 79.8665 14.2043C79.8426 14.2811 79.8039 14.3522 79.7527 14.413L79.0345 15.2871C78.9393 15.4043 78.8044 15.4793 78.6574 15.4966C78.5105 15.5139 78.3627 15.4722 78.2445 15.3801C77.3596 14.7097 76.2886 14.3547 75.1924 14.3685C74.1331 14.3685 73.2067 14.6884 73.2067 15.5549C73.2067 16.5181 74.5065 16.7003 75.81 16.9309C78.5929 17.433 80.3596 18.2549 80.3596 20.65C80.3596 23.1641 78.4169 24.7187 75.3324 24.7187C73.6466 24.7721 71.9956 24.2144 70.6643 23.1418C70.6046 23.0911 70.5552 23.0287 70.519 22.9581C70.4829 22.8874 70.4606 22.8101 70.4536 22.7305C70.4466 22.6509 70.4549 22.5706 70.4781 22.4944C70.5014 22.4181 70.539 22.3474 70.5889 22.2864L71.3717 21.3417ZM82.0652 23.826V8.68932C82.0652 8.61118 82.0801 8.5338 82.1089 8.4616C82.1378 8.3894 82.1801 8.3238 82.2335 8.26854C82.2868 8.21328 82.3501 8.16945 82.4198 8.13954C82.4896 8.10963 82.5643 8.09424 82.6397 8.09424H84.2951C84.6124 8.09424 84.8697 8.36068 84.8697 8.68932V13.8589C85.2818 13.2892 85.8196 12.83 86.438 12.5194C87.0564 12.2089 87.7376 12.056 88.4246 12.0736C90.8736 12.0736 92.3098 13.8811 92.3098 16.4622V23.826C92.3099 23.9042 92.295 23.9815 92.2661 24.0537C92.2373 24.1259 92.195 24.1915 92.1416 24.2468C92.0883 24.3021 92.0249 24.3459 91.9552 24.3758C91.8855 24.4057 91.8108 24.4211 91.7354 24.4211H90.08C89.9276 24.4211 89.7814 24.3584 89.6737 24.2468C89.5659 24.1352 89.5054 23.9838 89.5054 23.826V17.1317C89.5054 15.8486 89.1069 14.6845 87.5197 14.6845C86.0152 14.6845 84.8697 15.7817 84.8697 17.6114V23.8297C84.8697 23.9875 84.8092 24.1389 84.7014 24.2505C84.5937 24.3621 84.4475 24.4248 84.2951 24.4248H82.6397C82.5638 24.4252 82.4886 24.4101 82.4185 24.3801C82.3483 24.3501 82.2847 24.306 82.2312 24.2502C82.1777 24.1945 82.1355 24.1283 82.107 24.0554C82.0785 23.9826 82.0643 23.9046 82.0652 23.826Z" fill="black"/>
<path fill-rule="evenodd" clip-rule="evenodd" d="M109.334 20.375L110.526 24.0197C110.562 24.1383 110.633 24.2423 110.729 24.317C110.825 24.3917 110.941 24.4334 111.061 24.4363H113.112C113.205 24.4367 113.296 24.4139 113.378 24.3698C113.46 24.3257 113.531 24.2617 113.584 24.1832C113.638 24.1047 113.672 24.014 113.684 23.9188C113.696 23.8236 113.686 23.7268 113.654 23.6366L108.25 8.49995C108.208 8.38566 108.134 8.28712 108.037 8.21737C107.941 8.14763 107.826 8.10998 107.708 8.10942H105.054C104.939 8.10801 104.826 8.14276 104.729 8.20913C104.633 8.2755 104.559 8.37039 104.515 8.48138L99.0894 23.6217C99.0577 23.7116 99.0473 23.808 99.0592 23.9029C99.0711 23.9978 99.105 24.0883 99.1578 24.1667C99.2107 24.2452 99.281 24.3093 99.3628 24.3536C99.4447 24.398 99.5357 24.4212 99.628 24.4214H101.57C101.69 24.4218 101.807 24.3832 101.904 24.3112C102.002 24.2391 102.075 24.1371 102.113 24.0197L103.308 20.375H109.334ZM104.034 17.8349L106.354 10.7463L108.584 17.8349H104.034ZM117.816 13.8815V12.9442C117.82 12.8636 117.808 12.783 117.781 12.7073C117.753 12.6316 117.712 12.5625 117.658 12.5042C117.604 12.4458 117.539 12.3993 117.468 12.3676C117.396 12.3358 117.319 12.3195 117.241 12.3196H115.585C115.268 12.3196 115.011 12.586 115.011 12.9146V27.7909C115.011 28.1195 115.268 28.386 115.585 28.386H117.241C117.558 28.386 117.816 28.1195 117.816 27.7909V22.8557C118.221 23.4452 118.761 23.9211 119.388 24.2405C120.015 24.5599 120.709 24.7128 121.407 24.6854C124.584 24.6854 126.638 21.9298 126.638 18.363C126.638 14.7965 124.584 12.074 121.407 12.074C120.711 12.0448 120.019 12.1946 119.392 12.51C118.765 12.8254 118.224 13.2966 117.816 13.8815ZM123.69 18.363C123.69 20.4421 122.76 22.1603 120.818 22.1603C118.84 22.1603 117.816 20.4457 117.816 18.363C117.816 16.2803 118.893 14.6104 120.818 14.6104C122.742 14.6104 123.69 16.2841 123.69 18.363ZM131.173 13.8814V12.9441C131.178 12.8634 131.166 12.7827 131.14 12.7068C131.113 12.6309 131.071 12.5615 131.017 12.5028C130.964 12.4443 130.899 12.3978 130.827 12.3663C130.755 12.3347 130.677 12.3188 130.599 12.3194H128.943C128.791 12.3194 128.645 12.3821 128.537 12.4937C128.43 12.6053 128.369 12.7566 128.369 12.9143V27.7909C128.369 28.1194 128.626 28.3858 128.943 28.3858H130.599C130.916 28.3858 131.173 28.1194 131.173 27.7908V22.8555C131.579 23.4445 132.12 23.9199 132.746 24.2393C133.373 24.5587 134.067 24.7119 134.765 24.6853C137.946 24.6853 140 21.9294 140 18.3628C140 14.7963 137.946 12.0739 134.765 12.0739C134.069 12.0454 133.377 12.1954 132.75 12.5108C132.124 12.8261 131.582 13.2969 131.173 13.8814ZM137.052 18.3628C137.052 20.4419 136.122 22.1601 134.179 22.1601C132.212 22.1601 131.173 20.4456 131.173 18.3628C131.173 16.2802 132.254 14.6103 134.179 14.6103C136.104 14.6103 137.052 16.2839 137.052 18.3628Z" fill="black"/>
<path fill-rule="evenodd" clip-rule="evenodd" d="M20.2093 0.195068C23.3405 0.195068 24.881 0.195068 26.5723 0.745465C27.4799 1.08588 28.3042 1.62878 28.9868 2.33574C29.6694 3.04269 30.1935 3.89642 30.5222 4.83646C31.0536 6.57335 31.0536 8.18374 31.0536 11.4119V21.1261C31.0536 24.3506 31.0536 25.9609 30.5222 27.7015C30.1935 28.6415 29.6693 29.4952 28.9868 30.2022C28.3042 30.9091 27.4799 31.452 26.5723 31.7925C24.8953 32.3429 23.3405 32.3429 20.2236 32.3429H10.8156C7.70236 32.3429 6.14761 32.3429 4.46696 31.7925C3.55933 31.4521 2.73505 30.9092 2.05247 30.2022C1.3699 29.4952 0.845713 28.6415 0.517036 27.7015C0 25.9646 0 24.3691 0 21.1261V11.3971C0 8.17251 0 6.56234 0.531417 4.82157C0.860082 3.88151 1.38426 3.02779 2.06684 2.32083C2.74942 1.61387 3.57371 1.07097 4.48135 0.73057C6.14396 0.195068 7.70236 0.195068 10.8157 0.195068H20.2093Z" fill="#00D54B"/>
<path d="M16.3025 10.7315C17.828 10.734 19.3034 11.2951 20.4679 12.3158C20.5881 12.4286 20.7455 12.4896 20.9077 12.4861C21.0699 12.4827 21.2247 12.4151 21.3404 12.2972L22.5398 11.0514C22.5999 10.9896 22.6471 10.9155 22.6783 10.8339C22.7094 10.7523 22.724 10.6649 22.7209 10.5772C22.7179 10.4895 22.6974 10.4034 22.6606 10.3244C22.6239 10.2453 22.5717 10.1749 22.5075 10.1178C21.5655 9.28789 20.4763 8.65629 19.3008 8.25836L19.66 6.42475C19.6786 6.33053 19.6767 6.23318 19.6545 6.1398C19.6322 6.04642 19.5902 5.95934 19.5314 5.8849C19.4725 5.81046 19.3985 5.75053 19.3145 5.70946C19.2305 5.66838 19.1388 5.64721 19.0459 5.64746H16.737C16.5939 5.64732 16.4551 5.69775 16.3434 5.7904C16.2318 5.88306 16.154 6.0124 16.1229 6.15705L15.7998 7.79713C12.726 7.95342 10.1191 9.53024 10.1191 12.7621C10.1191 15.5551 12.2736 16.7564 14.5502 17.597C16.7046 18.4263 17.8465 18.7351 17.8465 19.9028C17.8465 21.0705 16.7082 21.8069 15.0314 21.8069C13.404 21.8339 11.8317 21.1967 10.6541 20.0331C10.5373 19.9141 10.3799 19.8474 10.216 19.8474C10.0521 19.8474 9.8948 19.9141 9.77794 20.0331L8.49239 21.3346C8.43233 21.3946 8.38456 21.4665 8.35193 21.546C8.31931 21.6256 8.30249 21.7111 8.30249 21.7976C8.30249 21.884 8.31931 21.9695 8.35193 22.0491C8.38456 22.1287 8.43233 22.2006 8.49239 22.2606C9.53982 23.2767 10.8182 24.0021 12.2089 24.3693L11.8498 26.069C11.8308 26.1639 11.8322 26.2621 11.8539 26.3564C11.8756 26.4507 11.917 26.539 11.9752 26.6149C12.0334 26.6908 12.1071 26.7526 12.1909 26.7958C12.2747 26.839 12.3667 26.8626 12.4603 26.865H14.7763C14.9205 26.8658 15.0606 26.8152 15.173 26.7217C15.2855 26.6283 15.3635 26.4976 15.394 26.3517L15.728 24.7413C19.4121 24.507 21.6636 22.4541 21.6636 19.449C21.6636 16.682 19.4193 15.5143 16.6939 14.5622C15.1355 13.956 13.7888 13.558 13.7888 12.3605C13.7888 11.163 15.0456 10.7315 16.3025 10.7315Z" fill="white"/>
</svg>
