<svg width="104" height="29" viewBox="0 0 104 29" fill="none" xmlns="http://www.w3.org/2000/svg">
<path fill-rule="evenodd" clip-rule="evenodd" d="M32.0057 7.4165H37.5651C39.4259 7.4165 40.8273 7.93088 41.6174 8.90342C42.3369 9.7891 42.575 11.0537 42.3263 12.6633C41.7743 16.3423 39.6608 18.1988 35.9987 18.1988H34.2387C33.8591 18.1988 33.5348 18.4883 33.4762 18.8826L32.8698 22.9107C32.8105 23.305 32.4869 23.5946 32.1065 23.5946H29.4524C29.167 23.5946 28.9492 23.3289 28.9939 23.0342L31.2424 8.0995C31.3017 7.70605 31.6252 7.4165 32.0057 7.4165ZM34.9045 14.9609C36.3783 14.9609 37.9025 14.9609 38.2065 12.871C38.3179 12.137 38.2285 11.6056 37.9366 11.2479C37.4473 10.6483 36.5002 10.6483 35.4963 10.6483H35.1118C34.8842 10.6483 34.6891 10.8221 34.6541 11.058L34.0656 14.9609H34.9045Z" fill="#253B80"/>
<path fill-rule="evenodd" clip-rule="evenodd" d="M51.5209 12.8038H54.1832C54.4677 12.8038 54.6847 13.0704 54.6392 13.3642L53.2004 22.9099C53.1402 23.3042 52.8183 23.5937 52.437 23.5937H50.039C49.7553 23.5937 49.5374 23.328 49.5821 23.0317L49.7008 22.2567C49.7008 22.2567 48.3863 23.8535 46.0159 23.8535C44.6348 23.8535 43.474 23.4362 42.6627 22.4347C41.7783 21.3455 41.4165 19.7836 41.671 18.1502C42.1603 14.8758 44.673 12.5415 47.6149 12.5415C48.8977 12.5415 50.1829 12.8345 50.7592 13.7108L50.9454 13.9935L51.0632 13.2134C51.0982 12.9775 51.2941 12.8038 51.5209 12.8038ZM47.4686 20.895C49.0082 20.895 50.2154 19.8253 50.4722 18.232C50.5885 17.4604 50.4275 16.7604 50.0219 16.2588C49.6171 15.7623 49.0025 15.4991 48.2465 15.4991C46.7304 15.4991 45.503 16.6037 45.2632 18.1834C45.138 18.9584 45.2875 19.6542 45.681 20.143C46.0777 20.6352 46.6955 20.895 47.4686 20.895Z" fill="#253B80"/>
<path d="M68.3618 12.8037H65.6865C65.4313 12.8037 65.1915 12.9366 65.0468 13.1588L61.357 18.8527L59.793 13.3811C59.6946 13.0388 59.393 12.8037 59.0516 12.8037H56.4227C56.1032 12.8037 55.8813 13.1307 55.9829 13.4458L58.9297 22.5053L56.1593 26.6024C55.9414 26.9252 56.1609 27.3688 56.5373 27.3688H59.2093C59.4629 27.3688 59.7003 27.2394 59.8442 27.0214L68.7422 13.5659C68.9552 13.244 68.7365 12.8037 68.3618 12.8037Z" fill="#253B80"/>
<path fill-rule="evenodd" clip-rule="evenodd" d="M71.6589 7.4165H77.2192C79.0799 7.4165 80.4805 7.93088 81.2699 8.90342C81.9893 9.7891 82.2291 11.0537 81.9795 12.6633C81.4268 16.3423 79.314 18.1988 75.6511 18.1988H73.892C73.5123 18.1988 73.188 18.4883 73.1295 18.8826L72.4913 23.116C72.4499 23.3919 72.2231 23.5946 71.9581 23.5946H69.1048C68.8211 23.5946 68.6032 23.3289 68.6479 23.0342L70.8964 8.0995C70.9558 7.70605 71.2793 7.4165 71.6589 7.4165ZM74.5585 14.9609C76.0332 14.9609 77.5573 14.9609 77.8606 12.871C77.9719 12.137 77.8833 11.6056 77.5915 11.2479C77.1021 10.6483 76.1543 10.6483 75.1512 10.6483H74.7667C74.5382 10.6483 74.3448 10.8221 74.3098 11.058L73.7204 14.9609H74.5585Z" fill="#179BD7"/>
<path fill-rule="evenodd" clip-rule="evenodd" d="M91.176 12.8038H93.8367C94.122 12.8038 94.3398 13.0704 94.296 13.3642L92.8563 22.9099C92.797 23.3042 92.4734 23.5937 92.0938 23.5937H89.6965C89.4112 23.5937 89.1934 23.328 89.2381 23.0317L89.3568 22.2567C89.3568 22.2567 88.0423 23.8535 85.6719 23.8535C84.2907 23.8535 83.1315 23.4362 82.3186 22.4347C81.4342 21.3455 81.0741 19.7836 81.3277 18.1502C81.8171 14.8758 84.3289 12.5415 87.2708 12.5415C88.5536 12.5415 89.838 12.8345 90.4143 13.7108L90.6013 13.9935L90.7192 13.2134C90.7533 12.9775 90.9476 12.8038 91.176 12.8038ZM87.1221 20.895C88.6617 20.895 89.8705 19.8253 90.1258 18.232C90.2436 17.4604 90.0827 16.7604 89.6754 16.2588C89.2706 15.7623 88.656 15.4991 87.9 15.4991C86.384 15.4991 85.1581 16.6037 84.9167 18.1834C84.7931 18.9584 84.9411 19.6542 85.3345 20.143C85.7312 20.6352 86.3506 20.895 87.1221 20.895Z" fill="#179BD7"/>
<path d="M96.9754 7.82625L94.6936 23.0344C94.6489 23.329 94.8667 23.5947 95.1504 23.5947H97.4444C97.8257 23.5947 98.1492 23.3052 98.2078 22.9109L100.458 7.97698C100.503 7.68233 100.285 7.41577 100.001 7.41577H97.4323C97.2055 7.41662 97.0104 7.59035 96.9754 7.82625Z" fill="#179BD7"/>
<path d="M5.90661 26.4969L6.33176 23.6678L5.38473 23.6448H0.862549L4.00523 2.76925C4.01499 2.70623 4.04669 2.64747 4.09303 2.60574C4.13936 2.56401 4.1987 2.54102 4.26048 2.54102H11.8855C14.4169 2.54102 16.1638 3.09286 17.0759 4.18207C17.5035 4.69304 17.7758 5.227 17.9075 5.81462C18.0457 6.43118 18.0481 7.16783 17.9132 8.06628L17.9034 8.13185V8.70755L18.331 8.96133C18.6911 9.16145 18.9773 9.39054 19.1968 9.65284C19.5626 10.0897 19.7991 10.645 19.8991 11.3033C20.0024 11.9803 19.9682 12.7859 19.7991 13.698C19.604 14.7472 19.2886 15.661 18.8627 16.4087C18.4708 17.0976 17.9717 17.6691 17.3791 18.1119C16.8133 18.5326 16.1411 18.852 15.381 19.0563C14.6445 19.2573 13.8048 19.3587 12.8838 19.3587H12.2903C11.866 19.3587 11.4539 19.5188 11.1303 19.8058C10.806 20.0987 10.5914 20.499 10.5255 20.9367L10.4808 21.1913L9.7297 26.1775L9.69555 26.3606C9.68661 26.4185 9.67117 26.4475 9.64841 26.4671C9.62808 26.485 9.59882 26.4969 9.57037 26.4969H5.90661Z" fill="#253B80"/>
<path d="M18.7358 8.19824C18.713 8.35068 18.687 8.50653 18.6578 8.66663C17.6522 14.0752 14.212 15.9437 9.81825 15.9437H7.58114C7.04381 15.9437 6.59102 16.3524 6.50729 16.9077L5.36191 24.5177L5.03756 26.6748C4.9831 27.0393 5.25136 27.368 5.60253 27.368H9.57031C10.0402 27.368 10.4393 27.0104 10.5133 26.525L10.5523 26.3138L11.2994 21.3471L11.3473 21.0746C11.4205 20.5875 11.8204 20.2298 12.2903 20.2298H12.8837C16.7279 20.2298 19.7373 18.5947 20.6169 13.8632C20.9843 11.8866 20.7941 10.2362 19.8218 9.0754C19.5276 8.72539 19.1626 8.43499 18.7358 8.19824Z" fill="#179BD7"/>
<path d="M17.6839 7.75873C17.5303 7.71189 17.3718 7.66931 17.2092 7.63099C17.0458 7.59352 16.8783 7.56031 16.706 7.53135C16.1028 7.42916 15.4419 7.38062 14.7339 7.38062H8.75744C8.61031 7.38062 8.47049 7.41553 8.3453 7.47855C8.06972 7.61736 7.86487 7.89073 7.81529 8.22542L6.5439 16.6615L6.50732 16.9076C6.59105 16.3524 7.04384 15.9436 7.58117 15.9436H9.81828C14.212 15.9436 17.6522 14.0743 18.6578 8.66655C18.6879 8.50645 18.7131 8.3506 18.7358 8.19816C18.4814 8.0568 18.2058 7.93587 17.9091 7.83282C17.8359 7.80727 17.7603 7.78258 17.6839 7.75873Z" fill="#222D65"/>
<path d="M7.81524 8.22551C7.86483 7.89083 8.06968 7.61746 8.34525 7.4795C8.47126 7.41648 8.61026 7.38156 8.7574 7.38156H14.7339C15.4419 7.38156 16.1028 7.43011 16.706 7.5323C16.8783 7.56125 17.0458 7.59447 17.2092 7.63194C17.3717 7.67026 17.5302 7.71284 17.6839 7.75968C17.7603 7.78353 17.8359 7.80822 17.9099 7.83292C18.2066 7.93596 18.4822 8.05774 18.7366 8.19826C19.0357 6.19953 18.7342 4.83865 17.7026 3.60636C16.5653 2.24975 14.5128 1.66895 11.8863 1.66895H4.26123C3.72471 1.66895 3.26705 2.07772 3.18413 2.63382L0.00811995 23.724C-0.0544736 24.1413 0.252804 24.5177 0.654378 24.5177H5.3619L6.54386 16.6616L7.81524 8.22551Z" fill="#253B80"/>
</svg>
