<svg width="250" height="41" viewBox="0 0 250 41" fill="none" xmlns="http://www.w3.org/2000/svg">
            <g clip-path="url(#clip0_1_4105)">
            <path d="M42.7285 9.05017L48.5809 2.56544L30.2549 0L24.9372 5.31771L19.0963 1.76347L0.153782 4.44963L6.58247 8.71386L0 13.9683L7.07687 17.2136L6.96764 30.8672L24.2401 40.7308L41.7843 30.4403V17.8934L49.1242 14.5878L42.7285 9.05017ZM2.58412 4.95985L19.3637 2.71204L23.4813 5.63246L7.78829 8.45948L2.58412 4.95985ZM17.2754 28.5863L17.182 35.1975L13.7987 33.4197L14.309 26.6518L12.1776 25.7579L15.4688 22.596L18.9914 29.3955L17.2754 28.5863ZM17.8301 20.2102L1.6528 14.0143L7.55546 9.54889L23.842 13.3345L17.8301 20.2102ZM30.4403 0.807721L47.1279 3.18632L42.2916 8.54858L26.1948 5.49736L30.4403 0.807721ZM35.9405 26.3902V33.1279L33.2371 34.7088L32.8347 28.319L30.9807 29.1324L34.6126 21.932L37.8722 25.3928L35.9405 26.3902ZM32.3561 20.2102L26.1905 13.6105L42.339 9.70123L47.8623 14.4268L32.3561 20.2102Z" fill="white"/>
            <path d="M233.08 27.3806V11.7048H229.603V27.3806V30.3628H233.08H237.932V27.3806H233.08Z" fill="white"/>
            <path d="M147.505 11.7048V25.3325C147.505 26.7429 146.944 28.0955 145.947 29.0927C144.95 30.09 143.597 30.6503 142.187 30.6503H141.26C139.85 30.6503 138.497 30.09 137.5 29.0927C136.503 28.0955 135.942 26.7429 135.942 25.3325V11.7048H139.392V25.2018C139.392 25.8116 139.634 26.3965 140.065 26.8278C140.496 27.259 141.081 27.5013 141.691 27.5013C142.301 27.5013 142.886 27.259 143.317 26.8278C143.748 26.3965 143.991 25.8116 143.991 25.2018V11.7048H147.505Z" fill="white"/>
            <path d="M201.376 11.7048V25.3325C201.376 26.0309 201.238 26.7224 200.971 27.3676C200.704 28.0127 200.312 28.5989 199.818 29.0927C199.325 29.5865 198.738 29.9782 198.093 30.2455C197.448 30.5127 196.757 30.6503 196.058 30.6503H195.13C193.72 30.6503 192.367 30.09 191.37 29.0927C190.372 28.0955 189.812 26.7429 189.812 25.3325V11.7048H193.261V25.2018C193.261 25.8116 193.504 26.3965 193.935 26.8278C194.366 27.259 194.951 27.5013 195.561 27.5013C196.171 27.5013 196.756 27.259 197.187 26.8278C197.618 26.3965 197.861 25.8116 197.861 25.2018V11.7048H201.376Z" fill="white"/>
            <path d="M113.713 11.7048V19.0663H109.092V11.7048H105.615V19.0663V22.2497V30.3628H109.092V22.2497H113.713V30.3628H117.189V22.2497V19.0663V11.7048H113.713Z" fill="white"/>
            <path d="M103.606 11.7048H100.026H96.5495H92.968V14.7402H96.5495V30.3628H100.026V14.7402H103.606V11.7048Z" fill="white"/>
            <path d="M91.0435 11.7048V30.3628H86.716L80.8105 16.6287C81.0764 17.4911 81.1698 19.108 81.1698 19.108V30.3614H77.9476V11.7048H82.1155L88.0484 25.38C87.9138 24.5556 87.8365 23.7229 87.817 22.8878V11.7048H91.0435Z" fill="white"/>
            <path d="M70.2771 14.7402V19.1094H74.8892V22.1462H70.2771V27.326H75.237V30.3628H66.7991V11.7048H75.237V14.7402H70.2771Z" fill="white"/>
            <path d="M164.925 14.7402V19.1094H169.537V22.1462H164.925V27.326H169.884V30.3628H161.447V11.7048H169.884V14.7402H164.925Z" fill="white"/>
            <path d="M59.7308 11.7048H54.2593V30.3628H57.7374V23.6711H59.1746C60.5762 23.6711 61.9204 23.1144 62.9114 22.1233C63.9025 21.1322 64.4593 19.788 64.4593 18.3865V16.4319C64.4593 15.811 64.337 15.1962 64.0993 14.6226C63.8617 14.049 63.5134 13.5278 63.0743 13.0888C62.6352 12.6499 62.1139 12.3017 61.5402 12.0642C60.9666 11.8268 60.3517 11.7046 59.7308 11.7048ZM60.9352 18.3333C60.9352 18.9432 60.693 19.5281 60.2617 19.9593C59.8305 20.3906 59.2456 20.6328 58.6357 20.6328H57.7374V14.7402H58.64C59.2499 14.7402 59.8348 14.9825 60.266 15.4138C60.6973 15.845 60.9395 16.4299 60.9395 17.0398L60.9352 18.3333Z" fill="white"/>
            <path d="M210.017 11.7048H204.547V30.3628H208.023V23.6711H209.46C210.862 23.6711 212.206 23.1144 213.197 22.1233C214.188 21.1322 214.745 19.788 214.745 18.3865V16.4319C214.745 15.811 214.623 15.1962 214.385 14.6226C214.147 14.049 213.799 13.5278 213.36 13.0888C212.921 12.6499 212.4 12.3017 211.826 12.0642C211.252 11.8268 210.637 11.7046 210.017 11.7048ZM211.221 18.3333C211.221 18.9432 210.979 19.5281 210.547 19.9593C210.116 20.3906 209.531 20.6328 208.921 20.6328H208.017V14.7402H208.933C209.543 14.7402 210.128 14.9825 210.559 15.4138C210.99 15.845 211.232 16.4299 211.232 17.0398L211.221 18.3333Z" fill="white"/>
            <path d="M222.586 11.7048H217.116V30.3628H220.594V23.6711H222.032C223.433 23.6711 224.777 23.1144 225.769 22.1233C226.76 21.1322 227.316 19.788 227.316 18.3865V16.4319C227.316 15.8108 227.194 15.1959 226.956 14.6222C226.719 14.0485 226.37 13.5273 225.931 13.0883C225.492 12.6493 224.97 12.3012 224.396 12.0638C223.822 11.8264 223.207 11.7045 222.586 11.7048ZM223.792 18.3333C223.792 18.9432 223.55 19.5281 223.119 19.9593C222.688 20.3906 222.103 20.6328 221.493 20.6328H220.59V14.7402H221.493C222.103 14.7402 222.688 14.9825 223.119 15.4138C223.55 15.845 223.792 16.4299 223.792 17.0398V18.3333Z" fill="white"/>
            <path d="M157.912 15.4975L159.163 12.623C159.163 12.623 157.278 11.4028 154.883 11.4028C152.489 11.4028 150.007 12.9637 150.007 16.7723C150.007 20.5809 152.738 21.8715 153.346 22.3041C153.953 22.7367 155.74 23.7414 155.74 25.7535C155.74 27.7656 153.067 28.4267 149.847 26.2321V29.7073C149.847 29.7073 151.546 30.6501 154.173 30.6501C156.801 30.6501 159.149 29.2129 159.149 25.4588C159.149 21.7048 157.016 20.6528 156.599 20.3122C156.183 19.9715 153.416 18.6752 153.416 16.4187C153.416 14.1623 155.973 13.9208 157.912 15.4975Z" fill="white"/>
            <path d="M186.31 15.4975L187.561 12.623C187.561 12.623 185.677 11.4028 183.281 11.4028C180.886 11.4028 178.415 12.9637 178.415 16.7651C178.415 20.5665 181.146 21.8644 181.752 22.297C182.359 22.7296 184.147 23.7342 184.147 25.7463C184.147 27.7584 181.473 28.4195 178.254 26.2249V29.7073C178.254 29.7073 179.954 30.6501 182.58 30.6501C185.206 30.6501 187.556 29.2129 187.556 25.4588C187.556 21.7048 185.424 20.6528 185.006 20.3122C184.588 19.9715 181.824 18.6752 181.824 16.4187C181.824 14.1623 184.379 13.9208 186.31 15.4975Z" fill="white"/>
            <path d="M246.322 11.7048L243.857 19.0361L241.393 11.7048H237.715L242.12 22.9913V30.3628H245.596V22.9913L250 11.7048H246.322Z" fill="white"/>
            <path d="M133.278 20.8597C133.278 10.6555 126.577 11.4028 126.577 11.4028C126.577 11.4028 119.877 10.6612 119.877 20.8597C119.877 20.8597 119.279 30.6558 126.577 30.6558C133.876 30.6558 133.278 20.8597 133.278 20.8597ZM126.58 27.5845C123.147 27.5845 123.428 20.9115 123.428 20.9115C123.426 13.9654 126.58 14.4727 126.58 14.4727C126.58 14.4727 129.733 13.9683 129.733 20.9143C129.731 20.9115 130.011 27.5845 126.58 27.5845Z" fill="white"/>
            </g>
            <defs>
            <clipPath id="clip0_1_4105">
            <rect width="250" height="40.7308" fill="white"/>
            </clipPath>
            </defs>
          </svg>